<?xml version="1.0" encoding="UTF-8" standalone="no"?>
<!DOCTYPE svg PUBLIC "-//W3C//DTD SVG 1.1//EN" "http://www.w3.org/Graphics/SVG/1.1/DTD/svg11.dtd">
<svg width="100%" height="100%" viewBox="0 0 3000 426" version="1.1" xmlns="http://www.w3.org/2000/svg" xmlns:xlink="http://www.w3.org/1999/xlink" xml:space="preserve" xmlns:serif="http://www.serif.com/" style="fill-rule:evenodd;clip-rule:evenodd;stroke-linejoin:round;stroke-miterlimit:2;">
    <g id="Imagotipo-Horizontal-Color" serif:id="Imagotipo Horizontal Color" transform="matrix(1,0,0,0.142,0,0)">
        <rect x="0" y="0" width="3000" height="3000" style="fill:none;"/>
        <clipPath id="_clip1">
            <rect x="0" y="0" width="3000" height="3000"/>
        </clipPath>
        <g clip-path="url(#_clip1)">
            <g transform="matrix(6.226693,0,0,23.993854,-63082.674929,-154028.020089)">
                <g transform="matrix(0.43107,0,0,0.787801,7425.529093,2209.484391)">
                    <g transform="matrix(123.636901,0,0,123.636901,7391.285762,5465.749919)">
                    </g>
                    <text x="6482.307px" y="5465.75px" style="font-family:'Archivo-SemiBold', 'Archivo', sans-serif;font-weight:600;font-size:123.637px;fill:rgb(104,91,199);">REDES LIBRES</text>
                </g>
                <g transform="matrix(0.053899,0,0,0.318611,10116.311283,6392.588577)">
                    <g transform="matrix(5.075963,0,0,1.569311,-17555.82794,-8836.602622)">
                        <circle cx="3583.462" cy="5756.456" r="28" style="fill:rgb(255,88,93);"/>
                    </g>
                    <g transform="matrix(5.075963,0,0,1.569311,-17555.82794,-8836.602622)">
                        <path d="M3637.964,5882.347C3637.982,5882.877 3638.077,5883.412 3638.257,5883.939L3638.259,5883.946C3638.393,5884.877 3638.462,5885.83 3638.462,5886.798C3638.462,5897.836 3629.5,5906.798 3618.462,5906.798C3607.423,5906.798 3598.462,5897.836 3598.462,5886.798C3598.462,5875.76 3607.423,5866.798 3618.462,5866.798C3627.97,5866.798 3635.938,5873.448 3637.964,5882.347Z" style="fill:rgb(255,88,93);"/>
                    </g>
                    <g transform="matrix(5.075963,0,0,1.569311,-17555.82794,-8836.602622)">
                        <path d="M3739.274,5839.601C3738.779,5837.68 3738.515,5835.667 3738.515,5833.593C3738.515,5831.612 3738.755,5829.687 3739.209,5827.845C3741.76,5817.481 3751.052,5809.756 3762.161,5809.595C3762.279,5809.594 3762.397,5809.593 3762.515,5809.593C3775.761,5809.593 3786.515,5820.347 3786.515,5833.593C3786.515,5846.839 3775.761,5857.593 3762.515,5857.593C3751.343,5857.593 3741.944,5849.943 3739.274,5839.601Z" style="fill:rgb(255,88,93);"/>
                    </g>
                    <g transform="matrix(3.332914,0,0,1.504503,-10708.369437,-5525.154616)">
                        <path d="M3621.61,3877.863L3416.563,3877.863C3384.189,3877.863 3353.147,3869.039 3330.288,3853.339C3307.429,3837.638 3294.633,3816.353 3294.725,3794.181L3294.964,3736.33C3294.982,3732.008 3300.103,3728.511 3306.413,3728.511L3574.364,3728.511C3601.225,3728.511 3626.981,3735.833 3645.947,3748.859C3664.914,3761.886 3675.531,3779.547 3675.454,3797.943L3675.254,3846.309C3659.137,3846.405 3644.671,3851.274 3634.724,3858.951C3634.524,3858.878 3634.32,3858.81 3634.11,3858.745L3466.77,3807.236C3466.93,3805.971 3467.012,3804.692 3467.012,3803.399C3467.012,3779.22 3438.35,3759.589 3403.047,3759.589C3367.744,3759.589 3339.082,3779.22 3339.082,3803.399C3339.082,3827.578 3367.744,3847.208 3403.047,3847.208C3429.437,3847.208 3452.116,3836.238 3461.886,3820.599L3624.419,3870.629C3623.147,3872.94 3622.198,3875.361 3621.61,3877.863Z" style="fill:rgb(104,91,199);"/>
                    </g>
                    <g transform="matrix(2.776625,0,0,1.255365,-8590.943042,-4373.038431)">
                        <path d="M3649.576,3781.891L3649.576,3853.856C3649.576,3856.343 3648.131,3858.727 3645.56,3860.486C3642.989,3862.244 3639.501,3863.232 3635.865,3863.232L3404.683,3863.232C3344.105,3863.232 3294.996,3829.651 3294.996,3788.227L3294.996,3753.796C3294.996,3751.303 3296.444,3748.913 3299.022,3747.151C3301.599,3745.388 3305.094,3744.398 3308.739,3744.398L3584.678,3744.398C3585.476,3747.641 3586.782,3750.767 3588.538,3753.736L3436.975,3789.157C3428.769,3775.513 3409.129,3765.896 3386.231,3765.896C3355.962,3765.896 3331.388,3782.7 3331.388,3803.399C3331.388,3824.097 3355.962,3840.901 3386.231,3840.901C3416.5,3840.901 3441.074,3824.097 3441.074,3803.399C3441.074,3803.176 3441.071,3802.955 3441.066,3802.733L3599.144,3765.789C3611.22,3775.63 3629.337,3781.891 3649.576,3781.891Z" style="fill:rgb(104,91,199);"/>
                    </g>
                </g>
            </g>
        </g>
    </g>
</svg>
